<?xml version="1.0" encoding="UTF-8" standalone="no"?>
<!-- Created with Inkscape (http://www.inkscape.org/) -->

<svg
   width="273.939mm"
   height="238.12498mm"
   viewBox="0 0 273.939 238.12498"
   version="1.1"
   id="svg1814"
   xmlns:inkscape="http://www.inkscape.org/namespaces/inkscape"
   xmlns:sodipodi="http://sodipodi.sourceforge.net/DTD/sodipodi-0.dtd"
   xmlns="http://www.w3.org/2000/svg"
   xmlns:svg="http://www.w3.org/2000/svg">
  <sodipodi:namedview
     id="namedview1816"
     pagecolor="#ffffff"
     bordercolor="#000000"
     borderopacity="0.25"
     inkscape:showpageshadow="2"
     inkscape:pageopacity="0.0"
     inkscape:pagecheckerboard="0"
     inkscape:deskcolor="#d1d1d1"
     inkscape:document-units="mm"
     showgrid="false" />
  <defs
     id="defs1811" />
  <g
     inkscape:label="Ebene 1"
     inkscape:groupmode="layer"
     id="layer1"
     transform="translate(67.775945,-4.7762175)">
    <path
       class="cls-1"
       d="M 70.611719,195.8054 H 40.787887 c -9.567332,0 -12.329584,5.08 -12.329584,11.39824 v 30.54348 c 0,3.02684 2.455336,5.14352 5.482168,5.14352 h 2.995084 c 3.026832,0 5.482164,-2.11668 5.482164,-5.14352 v -26.87108 c 0,-1.83092 1.524,-2.20132 2.635252,-2.20132 h 0.656164 c 1.06892,0 2.645836,0.3704 2.645836,2.20132 v 26.87108 c 0,2.98452 2.381248,5.08 5.344584,5.14352 0.05292,0 0.09524,0 0.14816,0 h 2.995084 c 3.026832,0 5.482168,-2.11668 5.482168,-5.14352 V 210.8972 c 0,-1.85208 1.555748,-2.21188 2.624664,-2.21188 h 0.62442 c 1.111248,0 2.656416,0.3704 2.656416,2.20132 v 26.87108 c 0,3.02684 2.455332,5.14348 5.482164,5.14348 h 2.995084 c 3.026836,0 5.482168,-2.11664 5.482168,-5.14348 V 207.2142 c 0,-6.31824 -2.836332,-11.39824 -11.557,-11.39824 z"
       id="path6"
       style="fill:#010101;stroke-width:1.05833" />
    <path
       class="cls-1"
       d="m -35.475613,195.8054 h -18.340916 v -11.65228 c 0,-3.0268 -2.455332,-5.14348 -5.482168,-5.14348 h -2.99508 c -3.026836,0 -5.482168,2.11668 -5.482168,5.14348 v 53.6046 c 0,3.02684 2.455332,5.14348 5.482168,5.14348 h 2.99508 c 3.026836,0 5.482168,-2.11664 5.482168,-5.14348 v -28.85016 h 14.065252 c 1.100664,0 2.656416,0.40216 2.656416,2.42356 v 26.4266 c 0,3.02684 2.455332,5.14348 5.482164,5.14348 h 2.995084 c 3.026836,0 5.482168,-2.11664 5.482168,-5.14348 V 207.2142 c 0,-5.21756 -2.772832,-11.39824 -12.329584,-11.39824 z"
       id="path8"
       style="fill:#010101;stroke-width:1.05833" />
    <path
       class="cls-1"
       d="M 128.22739,195.8054 H 98.403551 c -9.567332,0 -12.32958,5.08 -12.32958,11.39824 v 30.54348 c 0,3.02684 2.455332,5.14352 5.482164,5.14352 h 2.995084 c 3.026832,0 5.482171,-2.11668 5.482171,-5.14352 v -26.87108 c 0,-1.83092 1.524,-2.20132 2.63524,-2.20132 h 0.65617 c 1.06892,0 2.64583,0.3704 2.64583,2.20132 v 26.87108 c 0,2.98452 2.38126,5.08 5.34459,5.14352 0.0529,0 0.0952,0 0.14816,0 h 2.99508 c 3.02684,0 5.48217,-2.11668 5.48217,-5.14352 V 210.8972 c 0,-1.85208 1.55575,-2.21188 2.62466,-2.21188 h 0.62442 c 1.11125,0 2.65642,0.3704 2.65642,2.20132 v 26.87108 c 0,3.02684 2.45533,5.14348 5.48216,5.14348 h 2.99509 c 3.02683,0 5.48216,-2.11664 5.48216,-5.14348 V 207.2142 c 0,-6.31824 -2.83633,-11.39824 -11.557,-11.39824 z"
       id="path10"
       style="fill:#010101;stroke-width:1.05833" />
    <path
       class="cls-1"
       d="m 19.081471,195.8054 h -2.995084 c -3.026832,0 -5.482168,2.11664 -5.482168,5.14348 v 26.64884 c 0,1.95792 -1.555748,2.4236 -2.656416,2.4236 H -2.624945 c -1.100668,0 -2.656416,-0.44452 -2.656416,-2.4236 v -26.64884 c 0,-3.02684 -2.455336,-5.14348 -5.482168,-5.14348 h -2.995084 c -3.026832,0 -5.482164,2.11664 -5.482164,5.14348 v 30.54352 c 0,5.21756 2.772832,11.39824 12.32958,11.39824 h 19.134668 c 9.567332,0 12.329584,-6.18068 12.329584,-11.39824 v -30.54352 c 0,-3.02684 -2.455336,-5.14348 -5.482168,-5.14348 z"
       id="path12"
       style="fill:#010101;stroke-width:1.05833" />
    <path
       class="cls-1"
       d="m 188.30897,214.65432 v -8.04336 c 0,-8.382 -6.18067,-10.81616 -11.39825,-10.81616 h -21.82283 c -5.36576,0 -11.39826,2.60352 -11.39826,10.8056 v 25.46348 c 0,8.382 6.18067,10.8056 11.39826,10.8056 h 28.03524 c 3.02684,0 5.1435,-2.14844 5.1435,-4.80484 v -2.62468 c 0,-2.6564 -2.11666,-4.80484 -5.1435,-4.80484 0,0 -22.733,-0.0424 -23.5585,-0.0528 -1.49224,0 -1.91558,-1.35464 -1.91558,-2.21188 0,-0.36 0,-2.921 0,-2.921 h 19.27225 c 5.21759,0 11.39825,-2.4236 11.39825,-10.8162 z m -15.5575,-1.42876 h -15.113 v -2.86808 c 0,-0.96308 0.43392,-2.32836 2.42358,-2.32836 h 12.65767 c 1.98967,0 2.42358,1.36528 2.42358,2.32836 v 0.53972 c 0,0.95252 -0.41275,2.3072 -2.38125,2.32836 z"
       id="path14"
       style="fill:#010101;stroke-width:1.05833" />
    <path
       class="cls-1"
       d="m 200.68088,178.99904 h -2.99508 c -3.02684,0 -5.48216,2.11668 -5.48216,5.14352 v 53.60456 c 0,3.02684 2.45532,5.14352 5.48216,5.14352 h 2.99508 c 3.02684,0 5.48216,-2.11668 5.48216,-5.14352 v -53.60456 c 0,-3.02684 -2.45532,-5.14352 -5.48216,-5.14352 z"
       id="path16"
       style="fill:#010101;stroke-width:1.05833" />
    <path
       class="cls-1"
       d="m 69.204135,38.558237 c 9.313336,0 16.891,-7.57768 16.891,-16.912184 0,-9.3345 -7.577664,-16.8698355 -16.891,-16.8698355 -9.313332,0 -16.90158,7.5459155 -16.90158,16.8698355 0,9.323904 7.56708,16.912184 16.90158,16.912184 z"
       id="path18"
       style="fill:#010101;stroke-width:1.05833" />
    <path
       class="cls-1"
       d="m 34.152139,113.9962 35.051996,35.0626 35.062585,-35.0626 c -1.651,-2.85748 -4.18042,-6.67808 -5.291669,-8.40316 L 69.204135,135.3428 39.454387,105.59304 c -1.121832,1.72508 -3.630084,5.54568 -5.302248,8.40316 z"
       id="path20"
       style="fill:#010101;stroke-width:1.05833" />
    <polygon
       class="cls-1"
       points="129.43,56.13 106.62,88.35 129.45,111.18 152.23,88.4 "
       id="polygon22"
       style="fill:#010101"
       transform="matrix(1.0583333,0,0,1.0583333,-67.775945,3.9718855)" />
    <path
       class="cls-1"
       d="m 69.045387,178.99904 c 23.262164,0 42.280413,-18.85948 42.280413,-42.12164 0,-4.86836 -0.83608,-9.5462 -2.3495,-13.88536 L 69.193555,162.7642 29.431971,122.99204 c -1.524,4.33916 -2.360084,9.017 -2.360084,13.88536 0,23.26216 18.700748,42.12164 41.962916,42.12164 z"
       id="path24"
       style="fill:#010101;stroke-width:1.05833" />
    <path
       class="cls-1"
       d="m 95.429635,81.738237 c 10.286995,11.34532 18.933585,15.95964 33.273995,15.71624 14.351,-0.2436 27.178,-9.22868 32.77659,-17.10268 5.588,-7.874 8.08567,-15.748 8.08567,-26.62768 H 96.149303 c 11.197167,-8.80532 23.346827,-22.05564 36.078587,-28.014064 10.46691,-4.81542 23.29391,-0.31748 31.15733,9.673184 3.83117,5.24932 6.18067,11.938 6.18067,18.34088 5.67266,0 11.14424,-0.012 14.34041,-0.012 0.6985,-15.24 -7.65175,-28.088172 -19.80141,-36.893504 -35.47534,-22.8599995 -62.1665,17.377824 -88.593087,36.904064 0,0 9.620252,16.67936 19.917832,28.02468 z"
       id="path26"
       style="fill:#010101;stroke-width:1.05833" />
    <path
       class="cls-1"
       d="m 9.694055,97.454477 c 14.351,0.2436 22.987,-4.37092 33.274,-15.71624 10.287,-11.34536 19.917832,-28.02468 19.917832,-28.02468 C 36.459303,34.187317 9.768139,-6.0505305 -25.707197,16.809469 c -12.149664,8.805332 -20.499916,21.653488 -19.801416,36.893488 3.196168,0 8.667752,0.012 14.340416,0.012 0,-6.41352 2.3495,-13.10216 6.180668,-18.34092 7.863416,-10.001252 20.690416,-14.488584 31.157332,-9.673168 12.731752,5.958408 24.881416,19.219328 36.078584,28.014088 h -73.416584 c 0,10.89024 2.497668,18.75368 8.085668,26.62768 5.588,7.874 18.425584,16.85924 32.776584,17.10264 z"
       id="path28"
       style="fill:#010101;stroke-width:1.05833" />
  </g>
</svg>
