<?xml version="1.0" encoding="utf-8"?>
<!-- Generator: Adobe Illustrator 14.0.0, SVG Export Plug-In  -->
<!DOCTYPE svg PUBLIC "-//W3C//DTD SVG 1.1//EN" "http://www.w3.org/Graphics/SVG/1.1/DTD/svg11.dtd" [
	<!ENTITY ns_flows "http://ns.adobe.com/Flows/1.0/">
]>
<svg version="1.1"
	 xmlns="http://www.w3.org/2000/svg" xmlns:xlink="http://www.w3.org/1999/xlink" xmlns:a="http://ns.adobe.com/AdobeSVGViewerExtensions/3.0/"
	 x="0px" y="0px" width="567px" height="206px" viewBox="0 0 567 206" enable-background="new 0 0 567 206" xml:space="preserve">
<defs>
</defs>
<rect fill="#034EA1" width="566.93" height="206.134"/>
<path fill="#FFFFFF" d="M98.782,96.438c-5.689-3.709-12.369-6.429-17.811-9.77c-5.317-3.341-9.275-7.299-9.275-13.36
	c0-7.172,6.061-12.366,14.841-12.366c8.287,0,16.451,3.461,20.656,5.316V55.994c-3.712-0.742-11.998-2.225-18.677-2.225
	c-16.327,0-27.085,7.916-27.085,21.767c0,11.379,6.802,17.193,14.347,21.273c3.216,1.733,6.431,3.34,9.4,4.823
	c2.969,1.61,5.688,3.094,8.162,4.826c4.824,3.461,8.04,7.422,8.04,13.356c0,9.647-6.803,14.842-17.439,14.842
	c-8.287,0-16.822-3.833-21.646-6.062v11.01c2.349,0.619,10.019,2.724,20.036,2.724c16.822,0,30.428-7.547,30.428-24.49
	C112.759,106.581,108.058,102.623,98.782,96.438z"/>
<path fill="#FFFFFF" d="M140.561,55.126l-28.817,85.837h9.646l8.66-27.084h31.167l8.782,27.084h11.007l-28.942-85.837H140.561z
	 M132.275,106.828l13.358-41.682l13.233,41.682H132.275z"/>
<path fill="#FFFFFF" d="M220.312,96.438c-5.689-3.709-12.369-6.429-17.811-9.77c-5.317-3.341-9.275-7.299-9.275-13.36
	c0-7.172,6.061-12.366,14.843-12.366c8.286,0,16.449,3.461,20.655,5.316V55.994c-3.711-0.742-11.998-2.225-18.677-2.225
	c-16.327,0-27.085,7.916-27.085,21.767c0,11.379,6.802,17.193,14.347,21.273c3.216,1.733,6.431,3.34,9.4,4.823
	c2.967,1.61,5.688,3.094,8.162,4.826c4.824,3.461,8.04,7.422,8.04,13.356c0,9.647-6.803,14.842-17.439,14.842
	c-8.287,0-16.822-3.833-21.646-6.062v11.01c2.35,0.619,10.019,2.724,20.036,2.724c16.822,0,30.426-7.547,30.426-24.49
	C234.287,106.581,229.588,102.623,220.312,96.438z"/>
<path fill="#FFFFFF" d="M284.377,55.126l-28.818,85.837h9.648l8.657-27.084h31.169l8.781,27.084h11.008l-28.941-85.837H284.377z
	 M276.092,106.828l13.358-41.682l13.233,41.682H276.092z"/>
<path fill="#FFFFFF" d="M338.897,95.194v0.257h-0.125C338.812,95.367,338.856,95.279,338.897,95.194V81.599h-9.648v59.365h9.648
	V112.89c0-10.761,3.585-21.522,16.326-21.522h2.846V80.236C348.425,80.236,341.92,88.786,338.897,95.194z"/>
<path fill="#FFFFFF" d="M383.732,80.236c-17.316,0-24.119,12.493-24.119,29.311c0,21.771,11.625,32.781,29.315,32.781
	c3.338,0,5.813-0.372,8.036-0.745c2.23-0.369,4.209-0.989,6.804-1.731v-5.689c-1.978,0.494-3.335,0.992-4.946,1.236
	c-1.607,0.37-3.464,0.62-6.061,0.62c-17.935,0-22.388-18.554-22.388-31.664h34.507C404.881,99.409,404.76,80.236,383.732,80.236z
	 M370.621,98.666c0-3.462,2.353-13.109,12.491-13.109c10.267,0,11.752,8.037,11.752,13.109H370.621z"/>
<path fill="#FFFFFF" d="M441.364,80.236c-11.5,0-17.43,8.23-21.147,15.473v0.236h-0.124c0.041-0.078,0.084-0.158,0.124-0.236v-14.11
	h-9.401v59.365h9.648v-25.48c0-11.377,5.566-27.331,17.688-27.331c7.917,0,7.917,8.04,7.917,14.471v38.341h9.646V95.945
	C455.715,89.39,451.755,80.236,441.364,80.236z"/>
<path fill="#FFFFFF" d="M485.396,80.236c-17.314,0-20.9,9.647-21.643,17.193h11.009c0.493-4.7,0.99-11.872,10.266-11.872
	c9.521,0,10.389,8.78,10.389,15.089v7.667c-2.846,0.125-6.185,0.247-9.769,0.742c-10.393,1.236-23.501,4.825-23.501,18.181
	c0,8.041,6.553,15.093,16.199,15.093c9.647,0,15.09-6.682,17.07-9.647v8.283h9.521v-40.815
	C504.938,91.738,502.835,80.236,485.396,80.236z M495.416,119.814c0,9.03-6.556,15.954-13.852,15.954
	c-5.195,0-9.152-3.586-9.152-9.768c0-9.28,11.131-11.502,18.18-12.121c2.104-0.248,3.833-0.248,4.824-0.248V119.814z"/>
</svg>
